<mxfile host="Electron" modified="2023-08-08T14:06:52.466Z" agent="Mozilla/5.0 (Windows NT 10.0; Win64; x64) AppleWebKit/537.36 (KHTML, like Gecko) draw.io/21.6.5 Chrome/114.0.5735.243 Electron/25.3.1 Safari/537.36" etag="7H9JqHdA5sAdg7ZNWk60" version="21.6.5" type="device">
  <diagram name="Page-1" id="--ydP4UrqdqddPdnjr5C">
    <mxGraphModel dx="880" dy="545" grid="1" gridSize="10" guides="1" tooltips="1" connect="1" arrows="1" fold="1" page="1" pageScale="1" pageWidth="1169" pageHeight="827" math="0" shadow="0">
      <root>
        <mxCell id="0" />
        <mxCell id="1" parent="0" />
        <mxCell id="QcAbUtu7rI9nbaNgdTYl-1" value="" style="shape=ellipse;container=1;horizontal=1;horizontalStack=0;resizeParent=1;resizeParentMax=0;resizeLast=0;html=1;dashed=1;collapsible=0;" vertex="1" parent="1">
          <mxGeometry x="370" y="140" width="210" height="130" as="geometry" />
        </mxCell>
        <mxCell id="QcAbUtu7rI9nbaNgdTYl-2" value="&lt;span&gt;Sale&lt;/span&gt;" style="html=1;strokeColor=none;fillColor=none;align=center;verticalAlign=middle;spacingLeft=4;spacingRight=4;rotatable=0;points=[[0,0.5],[1,0.5]];resizeWidth=1;whiteSpace=wrap;fontStyle=1" vertex="1" parent="QcAbUtu7rI9nbaNgdTYl-1">
          <mxGeometry width="210" height="16.956521739130434" as="geometry" />
        </mxCell>
        <mxCell id="QcAbUtu7rI9nbaNgdTYl-3" value="" style="line;strokeWidth=1;fillColor=none;rotatable=0;labelPosition=right;points=[];portConstraint=eastwest;dashed=1;resizeWidth=1;" vertex="1" parent="QcAbUtu7rI9nbaNgdTYl-1">
          <mxGeometry x="30.333333333333332" y="16.956521739130434" width="149.33333333333331" height="4.521739130434783" as="geometry" />
        </mxCell>
        <mxCell id="QcAbUtu7rI9nbaNgdTYl-5" value="buyer" style="html=1;align=center;verticalAlign=middle;rotatable=0;whiteSpace=wrap;" vertex="1" parent="QcAbUtu7rI9nbaNgdTYl-1">
          <mxGeometry x="15" y="49.99666666666667" width="50" height="30" as="geometry">
            <mxPoint as="offset" />
          </mxGeometry>
        </mxCell>
        <mxCell id="QcAbUtu7rI9nbaNgdTYl-20" value="seller" style="html=1;align=center;verticalAlign=middle;rotatable=0;whiteSpace=wrap;" vertex="1" parent="QcAbUtu7rI9nbaNgdTYl-1">
          <mxGeometry x="145" y="50" width="50" height="30" as="geometry">
            <mxPoint as="offset" />
          </mxGeometry>
        </mxCell>
        <mxCell id="QcAbUtu7rI9nbaNgdTYl-21" style="edgeStyle=orthogonalEdgeStyle;rounded=0;orthogonalLoop=1;jettySize=auto;html=1;endArrow=none;endFill=0;" edge="1" parent="QcAbUtu7rI9nbaNgdTYl-1" source="QcAbUtu7rI9nbaNgdTYl-5" target="QcAbUtu7rI9nbaNgdTYl-20">
          <mxGeometry relative="1" as="geometry" />
        </mxCell>
        <mxCell id="QcAbUtu7rI9nbaNgdTYl-8" value="&lt;b&gt;Figure 11.54 A subset of the BrokeredSale Collaboration using «occurrence» and Dependency arrows&lt;/b&gt;" style="text;html=1;align=left;verticalAlign=middle;resizable=0;points=[];autosize=1;strokeColor=none;fillColor=none;" vertex="1" parent="1">
          <mxGeometry y="360" width="600" height="30" as="geometry" />
        </mxCell>
        <mxCell id="QcAbUtu7rI9nbaNgdTYl-10" value="" style="shape=ellipse;container=1;horizontal=1;horizontalStack=0;resizeParent=1;resizeParentMax=0;resizeLast=0;html=1;dashed=1;collapsible=0;" vertex="1" parent="1">
          <mxGeometry y="160" width="320" height="180" as="geometry" />
        </mxCell>
        <mxCell id="QcAbUtu7rI9nbaNgdTYl-11" value="&lt;span&gt;BrokeredSale&lt;/span&gt;" style="html=1;strokeColor=none;fillColor=none;align=center;verticalAlign=middle;spacingLeft=4;spacingRight=4;rotatable=0;points=[[0,0.5],[1,0.5]];resizeWidth=1;whiteSpace=wrap;fontStyle=1" vertex="1" parent="QcAbUtu7rI9nbaNgdTYl-10">
          <mxGeometry width="320" height="23.478260869565215" as="geometry" />
        </mxCell>
        <mxCell id="QcAbUtu7rI9nbaNgdTYl-12" value="" style="line;strokeWidth=1;fillColor=none;rotatable=0;labelPosition=right;points=[];portConstraint=eastwest;dashed=1;resizeWidth=1;" vertex="1" parent="QcAbUtu7rI9nbaNgdTYl-10">
          <mxGeometry x="46.22222222222222" y="23.478260869565215" width="227.55555555555554" height="6.260869565217392" as="geometry" />
        </mxCell>
        <mxCell id="QcAbUtu7rI9nbaNgdTYl-19" style="rounded=0;orthogonalLoop=1;jettySize=auto;html=1;exitX=1;exitY=0.5;exitDx=0;exitDy=0;entryX=0;entryY=0.5;entryDx=0;entryDy=0;endArrow=none;endFill=0;" edge="1" parent="QcAbUtu7rI9nbaNgdTYl-10" source="QcAbUtu7rI9nbaNgdTYl-14" target="QcAbUtu7rI9nbaNgdTYl-18">
          <mxGeometry relative="1" as="geometry" />
        </mxCell>
        <mxCell id="QcAbUtu7rI9nbaNgdTYl-14" value="buyer" style="html=1;align=center;verticalAlign=middle;rotatable=0;whiteSpace=wrap;" vertex="1" parent="QcAbUtu7rI9nbaNgdTYl-10">
          <mxGeometry x="30" y="50" width="80" height="30" as="geometry">
            <mxPoint as="offset" />
          </mxGeometry>
        </mxCell>
        <mxCell id="QcAbUtu7rI9nbaNgdTYl-18" value="producer" style="html=1;align=center;verticalAlign=middle;rotatable=0;whiteSpace=wrap;" vertex="1" parent="QcAbUtu7rI9nbaNgdTYl-10">
          <mxGeometry x="190" y="120" width="80" height="30" as="geometry">
            <mxPoint as="offset" />
          </mxGeometry>
        </mxCell>
        <mxCell id="QcAbUtu7rI9nbaNgdTYl-23" style="rounded=0;orthogonalLoop=1;jettySize=auto;html=1;exitX=1;exitY=0.5;exitDx=0;exitDy=0;entryX=0;entryY=0.5;entryDx=0;entryDy=0;labelBackgroundColor=none;endArrow=open;startArrow=none;endFill=0;startFill=0;endSize=8;dashed=1;" edge="1" parent="1" source="QcAbUtu7rI9nbaNgdTYl-14" target="QcAbUtu7rI9nbaNgdTYl-5">
          <mxGeometry relative="1" as="geometry" />
        </mxCell>
        <mxCell id="QcAbUtu7rI9nbaNgdTYl-24" style="rounded=0;orthogonalLoop=1;jettySize=auto;html=1;exitX=1;exitY=0.5;exitDx=0;exitDy=0;entryX=0;entryY=0.75;entryDx=0;entryDy=0;labelBackgroundColor=none;endArrow=open;startArrow=none;endFill=0;startFill=0;endSize=8;dashed=1;" edge="1" parent="1" source="QcAbUtu7rI9nbaNgdTYl-18" target="QcAbUtu7rI9nbaNgdTYl-20">
          <mxGeometry relative="1" as="geometry" />
        </mxCell>
        <mxCell id="QcAbUtu7rI9nbaNgdTYl-25" value="«occurence»" style="endArrow=open;startArrow=none;endFill=0;startFill=0;endSize=8;html=1;verticalAlign=middle;dashed=1;labelBackgroundColor=none;rounded=0;exitX=0.8;exitY=0.083;exitDx=0;exitDy=0;exitPerimeter=0;entryX=0.095;entryY=0.238;entryDx=0;entryDy=0;entryPerimeter=0;align=center;" edge="1" parent="1" source="QcAbUtu7rI9nbaNgdTYl-10" target="QcAbUtu7rI9nbaNgdTYl-1">
          <mxGeometry x="-0.028" y="23" width="160" relative="1" as="geometry">
            <mxPoint x="370" y="280" as="sourcePoint" />
            <mxPoint x="530" y="280" as="targetPoint" />
            <mxPoint as="offset" />
          </mxGeometry>
        </mxCell>
      </root>
    </mxGraphModel>
  </diagram>
</mxfile>
